# xmcd CD database file
#
# Track frame offsets:
#	150
#	3618
#	16238
#	33996
#	53293
#	71978
#	87361
#	109791
#	126658
#	143502
#	162658
#
# Disc length: 2241 seconds
#
# Revision: 0
# Processed by: cddbd v1.5.2PL0 Copyright (c) Steve Scherf et al.
# Submitted via: CDex 1.70beta2
#
DISCID=9208bf0b
DTITLE=STAR GUiTAR		 - Wherever I am	
DYEAR=2015
DGENRE=Jazz
TTITLE0=Everyday is a new day
TTITLE1=Be The Change You Wish
TTITLE2=The Curtain  Rises feat. fox capture plan
TTITLE3=Journey to Nothing
TTITLE4=I Spell You
TTITLE5=detour feat. LASTorder
TTITLE6=One more thing
TTITLE7=knowledge
TTITLE8=Mind Float
TTITLE9=before dark
TTITLE10=inherit
EXTD=YEAR: 2015
EXTT0=
EXTT1=
EXTT2=
EXTT3=
EXTT4=
EXTT5=
EXTT6=
EXTT7=
EXTT8=
EXTT9=
EXTT10=
PLAYORDER=
